<?xml version="1.0" encoding="utf-8"?>
<svg version="1.0" width="3205.000000pt" height="792.000000pt" viewBox="0 0 3205.000000 792.000000" preserveAspectRatio="xMidYMid meet" xmlns="http://www.w3.org/2000/svg">
  <g transform="translate(0.000000,792.000000) scale(0.100000,-0.100000)" fill="#000000" stroke="none">
    <path d="M3069 6452 l-1614 -1468 -3 -1471 -2 -1471 -108 -66 c-561 -348 -964 -818 -1187 -1385 -61 -154 -130 -407 -141 -514 l-7 -66 44 40 c221 205 689 377 1244 458 335 49 612 67 1040 70 586 3 1076 -32 1935 -139 977 -121 1764 -178 2485 -178 1419 0 2474 226 3012 644 67 52 173 160 173 175 0 2 -111 5 -248 5 -527 4 -1088 75 -1652 212 l-115 28 -3 1827 -2 1827 -1597 1452 c-879 799 -1607 1461 -1619 1470 -21 17 -41 0 -1635 -1450z m2845 -777 l1166 -1060 0 -1522 0 -1521 -22 6 c-40 10 -552 186 -893 307 -1213 430 -1758 578 -2390 647 -187 20 -697 17 -865 -5 -172 -24 -301 -49 -468 -92 -72 -19 -137 -35 -142 -35 -7 0 -10 301 -10 875 l0 875 1195 0 1195 0 0 415 0 415 -986 0 c-667 0 -985 3 -982 10 2 6 446 413 987 905 l984 895 33 -28 c18 -15 557 -504 1198 -1087z" style="fill: rgb(254, 55, 93);"/>
    <path d="M27103 5630 c-656 -69 -1124 -469 -1293 -1104 -45 -170 -61 -284 -67 -491 -14 -458 76 -817 284 -1135 69 -105 269 -306 373 -375 359 -239 847 -314 1290 -199 609 157 1005 638 1095 1327 20 156 20 449 -1 609 -94 730 -548 1235 -1214 1349 -133 23 -349 32 -467 19z m377 -625 c36 -8 108 -37 160 -62 79 -39 109 -61 180 -132 168 -170 253 -388 280 -720 11 -137 2 -334 -20 -453 -70 -372 -263 -624 -544 -714 -160 -50 -320 -55 -479 -15 -307 79 -502 309 -588 696 -27 118 -37 439 -19 582 34 273 144 516 294 650 103 91 226 150 371 179 86 17 273 11 365 -11z" style="fill: rgb(254, 55, 93);"/>
    <path d="M10240 3955 l0 -1636 728 4 c790 3 781 3 990 63 304 88 558 295 674 552 97 213 113 507 41 737 -98 313 -359 545 -725 645 -175 47 -237 53 -638 59 l-385 6 0 320 0 320 743 3 742 2 0 280 0 280 -1085 0 -1085 0 0 -1635z m1415 -139 c215 -60 345 -192 376 -382 31 -195 -76 -401 -257 -492 -124 -63 -155 -67 -519 -67 l-330 0 -3 470 c-1 259 0 476 3 483 8 22 648 11 730 -12z" style="fill: rgb(254, 55, 93);"/>
    <path d="M13060 3955 l0 -1635 1105 0 1105 0 0 285 0 285 -760 0 -760 0 0 390 0 390 700 0 700 0 0 285 0 285 -700 0 -700 0 0 395 0 395 755 0 755 0 0 280 0 280 -1100 0 -1100 0 0 -1635z" style="fill: rgb(254, 55, 93);"/>
    <path d="M15710 3955 l0 -1635 345 0 345 0 0 529 0 529 393 5 c306 4 411 8 477 21 430 83 717 316 841 684 47 139 62 261 56 446 -5 164 -23 264 -67 383 -113 303 -356 525 -677 618 -178 52 -234 55 -1002 55 l-711 0 0 -1635z m1368 1052 c199 -59 318 -177 367 -363 20 -76 19 -242 0 -319 -37 -146 -127 -260 -253 -324 -113 -57 -157 -63 -489 -68 l-303 -5 0 552 0 552 313 -5 c244 -3 323 -7 365 -20z" style="fill: rgb(254, 55, 93);"/>
    <path d="M18520 3955 l0 -1635 1105 0 1105 0 0 285 0 285 -765 0 -765 0 0 390 0 390 705 0 705 0 0 285 0 285 -705 0 -705 0 2 393 3 392 758 3 757 2 0 280 0 280 -1100 0 -1100 0 0 -1635z" style="fill: rgb(254, 55, 93);"/>
    <path d="M21072 5567 c7 -13 227 -360 488 -771 261 -412 474 -751 473 -755 -1 -3 -231 -392 -511 -864 l-510 -857 410 2 411 3 353 640 353 640 225 3 226 2 0 -645 0 -645 335 0 335 0 0 645 0 645 231 -2 231 -3 345 -642 346 -643 410 0 c354 0 408 2 404 15 -4 8 -229 397 -501 865 l-495 850 456 733 c250 402 466 749 479 770 l24 37 -424 0 -424 0 -352 -662 c-194 -365 -357 -669 -362 -675 -8 -10 -58 -13 -189 -13 l-179 0 0 675 0 675 -335 0 -335 0 0 -675 0 -675 -174 0 -173 0 -368 675 -368 675 -424 0 -424 0 13 -23z" style="fill: rgb(254, 55, 93);"/>
    <path d="M29210 3955 l0 -1635 345 0 345 0 0 700 0 700 115 0 115 0 57 -73 c32 -40 270 -355 528 -699 l470 -627 428 0 c339 -1 427 2 421 11 -5 7 -304 402 -666 877 -576 756 -657 866 -645 880 8 9 288 342 622 741 334 399 615 733 623 743 14 16 -6 17 -414 17 l-429 0 -544 -655 -544 -655 -69 0 -68 0 0 655 0 655 -345 0 -345 0 0 -1635z" style="fill: rgb(254, 55, 93);"/>
  </g>
</svg>