<?xml version="1.0" encoding="utf-8"?>
<svg viewBox="265 261.006 471.445 375.994" width="471.445" height="375.994" xmlns="http://www.w3.org/2000/svg">
  <defs>
    <style type="text/css">
   
    .fil0 {fill:#2E2E2F;fill-rule:nonzero}
   
  </style>
  </defs>
  <g id="Слой_x0020_1">
    <path class="fil0" d="M373.564 440.122l113.501 0 0 -39.856 -93.92 0 93.864 -85.38 113.445 103.183 0 144.066c-78.44,-25.4 -147.544,-60.176 -219.869,-40.994 -2.408,0.642 -4.703,1.343 -7.021,2.039l0 -83.058zm266.746 133.559l0 -173.239 -153.301 -139.436 -153.299 139.436 0 139.414c-65.505,37.042 -68.71,97.144 -68.71,97.144 0,0 30.027,-43.516 199.275,-21.352 239.13,31.315 272.17,-30.505 272.17,-30.505 -34.041,1.041 -65.863,-3.867 -96.135,-11.462z" style="fill: rgb(255, 56, 92);"/>
  </g>
</svg>